HIERARCHY
ROOT Hips
{
  OFFSET 340.003 92.5951 292.228
  CHANNELS 6 Xposition Yposition Zposition Zrotation Xrotation Yrotation
  JOINT RightUpLeg
  {
    OFFSET -9.26609 -1.5806 -0.0684436
    CHANNELS 3 Zrotation Xrotation Yrotation
    JOINT RightLeg
    {
      OFFSET -0.0699729 -41.8856 0.025134
      CHANNELS 3 Zrotation Xrotation Yrotation
      JOINT RightFoot
      {
        OFFSET -0.752211 -41.0064 1.27731
        CHANNELS 3 Zrotation Xrotation Yrotation
        End Site
        {
          OFFSET 0 -7.69 17.5
        }
      }
    }
  }
  JOINT LeftUpLeg
  {
    OFFSET 9.29203 -1.60136 0.0862626
    CHANNELS 3 Zrotation Xrotation Yrotation
    JOINT LeftLeg
    {
      OFFSET 0.0822268 -41.8886 0.00447562
      CHANNELS 3 Zrotation Xrotation Yrotation
      JOINT LeftFoot
      {
        OFFSET -0.848467 -42.1977 -1.10397
        CHANNELS 3 Zrotation Xrotation Yrotation
        End Site
        {
          OFFSET 0 -7.69 17.5
        }
      }
    }
  }
  JOINT Spine
  {
    OFFSET -0.0244873 14.3002 0.0159698
    CHANNELS 3 Zrotation Xrotation Yrotation
    JOINT Spine1
    {
      OFFSET -0.0132136 9.72434 0.0101154
      CHANNELS 3 Zrotation Xrotation Yrotation
      JOINT Spine2
      {
        OFFSET 0.00406896 10.114 0.0156068
        CHANNELS 3 Zrotation Xrotation Yrotation
        JOINT Spine3
        {
          OFFSET -0.024748 9.70954 0.0065763
          CHANNELS 3 Zrotation Xrotation Yrotation
          JOINT Neck
          {
            OFFSET 0.0279797 10.3854 -0.0829431
            CHANNELS 3 Zrotation Xrotation Yrotation
            JOINT Head
            {
              OFFSET -0.069571 9.46425 -0.0572086
              CHANNELS 3 Zrotation Xrotation Yrotation
              End Site
              {
                OFFSET 0 15.95 0
              }
            }
          }
          JOINT RightShoulder
          {
            OFFSET -3.22099 6.90738 0.00914502
            CHANNELS 3 Zrotation Xrotation Yrotation
            JOINT RightArm
            {
              OFFSET -12.8106 -0.0464494 0.0058648
              CHANNELS 3 Zrotation Xrotation Yrotation
              JOINT RightForeArm
              {
                OFFSET -26.5147 -0.0513887 -0.0188705
                CHANNELS 3 Zrotation Xrotation Yrotation
                JOINT RightHand
                {
                  OFFSET -25.9719 -0.0265549 0.0758228
                  CHANNELS 3 Zrotation Xrotation Yrotation
                  JOINT RightHandThumb1
                  {
                    OFFSET -2.48905 0.190105 3.12053
                    CHANNELS 3 Zrotation Xrotation Yrotation
                    JOINT RightHandThumb2
                    {
                      OFFSET -3.68274 0 0
                      CHANNELS 3 Zrotation Xrotation Yrotation
                      JOINT RightHandThumb3
                      {
                        OFFSET -2.55832 0 0
                        CHANNELS 3 Zrotation Xrotation Yrotation
                        End Site
                        {
                          OFFSET -2.194 0 0
                        }
                      }
                    }
                  }
                  JOINT RightInHandIndex
                  {
                    OFFSET -3.22368 0.508421 1.97842
                    CHANNELS 3 Zrotation Xrotation Yrotation
                    JOINT RightHandIndex1
                    {
                      OFFSET -5.21684 -0.091368 0.999158
                      CHANNELS 3 Zrotation Xrotation Yrotation
                      JOINT RightHandIndex2
                      {
                        OFFSET -3.61937 0 0
                        CHANNELS 3 Zrotation Xrotation Yrotation
                        JOINT RightHandIndex3
                        {
                          OFFSET -2.0521 0 0
                          CHANNELS 3 Zrotation Xrotation Yrotation
                          End Site
                          {
                            OFFSET -1.805 0 0
                          }
                        }
                      }
                    }
                  }
                  JOINT RightInHandMiddle
                  {
                    OFFSET -3.38211 0.517263 0.756737
                    CHANNELS 3 Zrotation Xrotation Yrotation
                    JOINT RightHandMiddle1
                    {
                      OFFSET -5.17411 -0.084 0.313895
                      CHANNELS 3 Zrotation Xrotation Yrotation
                      JOINT RightHandMiddle2
                      {
                        OFFSET -3.94947 0 0
                        CHANNELS 3 Zrotation Xrotation Yrotation
                        JOINT RightHandMiddle3
                        {
                          OFFSET -2.47579 0 0
                          CHANNELS 3 Zrotation Xrotation Yrotation
                          End Site
                          {
                            OFFSET -1.975 0 0
                          }
                        }
                      }
                    }
                  }
                  JOINT RightInHandRing
                  {
                    OFFSET -3.36516 0.537895 -0.128947
                    CHANNELS 3 Zrotation Xrotation Yrotation
                    JOINT RightHandRing1
                    {
                      OFFSET -4.63474 -0.022105 -0.478947
                      CHANNELS 3 Zrotation Xrotation Yrotation
                      JOINT RightHandRing2
                      {
                        OFFSET -3.44238 0 0
                        CHANNELS 3 Zrotation Xrotation Yrotation
                        JOINT RightHandRing3
                        {
                          OFFSET -2.3881 0 0
                          CHANNELS 3 Zrotation Xrotation Yrotation
                          End Site
                          {
                            OFFSET -1.857 0 0
                          }
                        }
                      }
                    }
                  }
                  JOINT RightInHandPinky
                  {
                    OFFSET -3.16105 0.469368 -1.20179
                    CHANNELS 3 Zrotation Xrotation Yrotation
                    JOINT RightHandPinky1
                    {
                      OFFSET -4.14105 -0.022105 -1.09053
                      CHANNELS 3 Zrotation Xrotation Yrotation
                      JOINT RightHandPinky2
                      {
                        OFFSET -2.75653 0 0
                        CHANNELS 3 Zrotation Xrotation Yrotation
                        JOINT RightHandPinky3
                        {
                          OFFSET -1.74189 0 0
                          CHANNELS 3 Zrotation Xrotation Yrotation
                          End Site
                          {
                            OFFSET -1.645 0 0
                          }
                        }
                      }
                    }
                  }
                }
              }
            }
          }
          JOINT LeftShoulder
          {
            OFFSET 3.1866 6.92089 -0.0305014
            CHANNELS 3 Zrotation Xrotation Yrotation
            JOINT LeftArm
            {
              OFFSET 12.7989 -0.0106337 -0.0135196
              CHANNELS 3 Zrotation Xrotation Yrotation
              JOINT LeftForeArm
              {
                OFFSET 26.5166 0.00962758 0.011832
                CHANNELS 3 Zrotation Xrotation Yrotation
                JOINT LeftHand
                {
                  OFFSET 25.9991 0.0644121 -0.000677009
                  CHANNELS 3 Zrotation Xrotation Yrotation
                  JOINT LeftHandThumb1
                  {
                    OFFSET 2.48905 0.190105 3.12053
                    CHANNELS 3 Zrotation Xrotation Yrotation
                    JOINT LeftHandThumb2
                    {
                      OFFSET 3.68274 0 0
                      CHANNELS 3 Zrotation Xrotation Yrotation
                      JOINT LeftHandThumb3
                      {
                        OFFSET 2.55832 0 0
                        CHANNELS 3 Zrotation Xrotation Yrotation
                        End Site
                        {
                          OFFSET 2.194 0 0
                        }
                      }
                    }
                  }
                  JOINT LeftInHandIndex
                  {
                    OFFSET 3.22368 0.508421 1.97842
                    CHANNELS 3 Zrotation Xrotation Yrotation
                    JOINT LeftHandIndex1
                    {
                      OFFSET 5.21684 -0.091368 0.999158
                      CHANNELS 3 Zrotation Xrotation Yrotation
                      JOINT LeftHandIndex2
                      {
                        OFFSET 3.61937 0 0
                        CHANNELS 3 Zrotation Xrotation Yrotation
                        JOINT LeftHandIndex3
                        {
                          OFFSET 2.0521 0 0
                          CHANNELS 3 Zrotation Xrotation Yrotation
                          End Site
                          {
                            OFFSET 1.805 0 0
                          }
                        }
                      }
                    }
                  }
                  JOINT LeftInHandMiddle
                  {
                    OFFSET 3.38211 0.517263 0.756737
                    CHANNELS 3 Zrotation Xrotation Yrotation
                    JOINT LeftHandMiddle1
                    {
                      OFFSET 5.17411 -0.084 0.313895
                      CHANNELS 3 Zrotation Xrotation Yrotation
                      JOINT LeftHandMiddle2
                      {
                        OFFSET 3.94947 0 0
                        CHANNELS 3 Zrotation Xrotation Yrotation
                        JOINT LeftHandMiddle3
                        {
                          OFFSET 2.47579 0 0
                          CHANNELS 3 Zrotation Xrotation Yrotation
                          End Site
                          {
                            OFFSET 1.975 0 0
                          }
                        }
                      }
                    }
                  }
                  JOINT LeftInHandRing
                  {
                    OFFSET 3.36516 0.537895 -0.128947
                    CHANNELS 3 Zrotation Xrotation Yrotation
                    JOINT LeftHandRing1
                    {
                      OFFSET 4.63474 -0.022105 -0.478947
                      CHANNELS 3 Zrotation Xrotation Yrotation
                      JOINT LeftHandRing2
                      {
                        OFFSET 3.44238 0 0
                        CHANNELS 3 Zrotation Xrotation Yrotation
                        JOINT LeftHandRing3
                        {
                          OFFSET 2.3881 0 0
                          CHANNELS 3 Zrotation Xrotation Yrotation
                          End Site
                          {
                            OFFSET 1.857 0 0
                          }
                        }
                      }
                    }
                  }
                  JOINT LeftInHandPinky
                  {
                    OFFSET 3.16105 0.469368 -1.20179
                    CHANNELS 3 Zrotation Xrotation Yrotation
                    JOINT LeftHandPinky1
                    {
                      OFFSET 4.14105 -0.022105 -1.09053
                      CHANNELS 3 Zrotation Xrotation Yrotation
                      JOINT LeftHandPinky2
                      {
                        OFFSET 2.75653 0 0
                        CHANNELS 3 Zrotation Xrotation Yrotation
                        JOINT LeftHandPinky3
                        {
                          OFFSET 1.74189 0 0
                          CHANNELS 3 Zrotation Xrotation Yrotation
                          End Site
                          {
                            OFFSET 1.645 0 0
                          }
                        }
                      }
                    }
                  }
                }
              }
            }
          }
        }
      }
    }
  }
}
MOTION
Frames:	4
Frame Time:	0.00833333
337.565 88.8788 269.054 28.0068 24.7922 -44.866 -28.2676 -56.7243 -23.1401 3.53395 30.4344 -22.257 7.73333 -3.28267 17.8569 3.23293 -63.9094 -21.1217 -5.88424 33.4631 4.92671 -11.7372 -9.15247 6.30064 8.36792 7.1236 -2.77991 2.05685 1.89055 -0.447705 3.40238 3.15283 -0.640467 -0.421185 -0.704541 -0.0300502 -0.422152 -0.701644 -0.0257453 -7.74518 -12.5677 -0.398241 -4.13071 -7.30013 -1.78068 70.8336 16.2574 58.5088 14.0211 -40.371 7.52516 22.9254 -9.42164 -11.5061 28.184 10.7294 19.1592 -3.33477e-15 -5.96354e-16 -10 -4.84443e-15 0 -10 -9.54166e-15 0 3.18055e-15 19.9818 0.871897 2.3964 24 -5.49764e-16 6.36111e-15 20 3.18055e-15 6.36111e-15 -9.54166e-15 0 3.18055e-15 20 4.77083e-15 6.36111e-15 24 -1.44119e-15 -0 20 -3.18055e-15 -2.22639e-14 -9.54166e-15 0 3.18055e-15 19.9748 -1.02565 -2.81938 24 1.88845e-15 3.18055e-15 20 0 9.54166e-15 -9.54166e-15 0 3.18055e-15 19.7815 -3.00948 -8.30515 24 -3.97569e-16 9.54166e-15 20 -7.15625e-15 -3.18055e-15 0.261154 -9.82729 -26.1943 -40.7934 39.4901 -66.0332 7.25283 -53.8164 1.72688 -5.36495 5.46801 2.97865 -28.184 10.7294 -19.1592 -3.22962e-15 0 10 6.87985e-15 -2.38542e-15 10 1.0483e-31 1.59028e-15 -3.77691e-15 -19.9818 0.871897 -2.3964 -24 0 1.59028e-15 -20 -3.97569e-16 4.77083e-15 1.0483e-31 1.59028e-15 -3.77691e-15 -20 1.59028e-15 -2.38542e-15 -24 -2.38542e-15 -3.18055e-15 -20 1.19271e-15 -1.59028e-15 1.0483e-31 1.59028e-15 -3.77691e-15 -19.9748 -1.02565 2.81938 -24 1.59028e-15 -2.38542e-15 -20 -3.97569e-16 -5.56597e-15 1.0483e-31 1.59028e-15 -3.77691e-15 -19.7815 -3.00948 8.30515 -24 2.38542e-15 3.97569e-15 -20 1.39149e-15 -7.95139e-16 
337.587 88.8666 269.085 28.1112 24.6393 -45.1788 -28.0963 -56.8205 -22.79 3.47424 30.3847 -22.2081 7.74454 -3.18322 17.9129 3.54896 -63.8612 -20.7005 -5.9847 33.5913 5.01672 -11.7209 -9.29099 6.37274 8.34498 7.1 -2.86755 2.05025 1.8881 -0.471835 3.39207 3.15173 -0.681446 -0.431303 -0.704488 -0.0126988 -0.432317 -0.701494 -0.00831558 -7.8993 -12.544 -0.0900947 -4.14106 -7.17718 -1.71352 71.133 15.9617 58.3496 14.3764 -40.6136 8.17419 22.8863 -9.42831 -11.4868 28.184 10.7294 19.1592 -1.00394e-14 -1.98785e-15 -10 -1.52343e-14 -3.97569e-15 -10 -1.76556e-31 -3.18055e-15 -3.18055e-15 19.9818 0.871897 2.3964 24 -3.04389e-15 9.54166e-15 20 3.97569e-15 3.18055e-15 -1.76556e-31 -3.18055e-15 -3.18055e-15 20 4.77083e-15 1.59028e-14 24 -1.41634e-15 -0 20 -1.59028e-15 6.36111e-15 -1.76556e-31 -3.18055e-15 -3.18055e-15 19.9748 -1.02565 -2.81938 24 -5.06901e-15 6.36111e-15 20 -1.59028e-15 1.27222e-14 -1.76556e-31 -3.18055e-15 -3.18055e-15 19.7815 -3.00948 -8.30515 24 4.77083e-15 6.36111e-15 20 1.59028e-15 6.36111e-15 0.265365 -9.87409 -26.2747 -40.494 39.6039 -66.3414 7.64153 -53.382 2.11944 -5.34455 5.50434 3.02084 -28.184 10.7294 -19.1592 2.38839e-15 4.77083e-15 10 -3.51003e-15 1.59028e-15 10 -3.18055e-15 1.59028e-15 -5.96354e-16 -19.9818 0.871897 -2.3964 -24 -1.59028e-15 7.95139e-16 -20 1.59028e-15 -2.38542e-15 -3.18055e-15 1.59028e-15 -5.96354e-16 -20 1.59028e-15 -5.96354e-15 -24 0 -7.95139e-15 -20 1.19271e-15 -6.36111e-15 -3.18055e-15 1.59028e-15 -5.96354e-16 -19.9748 -1.02565 2.81938 -24 1.59028e-15 -2.38542e-15 -20 2.38542e-15 -6.36111e-15 -3.18055e-15 1.59028e-15 -5.96354e-16 -19.7815 -3.00948 8.30515 -24 1.59028e-15 -4.77083e-15 -20 1.98785e-15 -8.74653e-15 
337.608 88.8531 269.118 28.2103 24.4844 -45.4964 -27.9106 -56.9215 -22.423 3.41452 30.3335 -22.1643 7.75151 -3.08091 17.9672 3.86167 -63.8061 -20.3011 -6.08667 33.7225 5.11926 -11.7097 -9.43214 6.44933 8.32665 7.07665 -2.96338 2.04472 1.88655 -0.497908 3.38351 3.15099 -0.72558 -0.441495 -0.704454 0.00560866 -0.442565 -0.701369 0.0100652 -8.05338 -12.5239 0.234886 -4.12104 -7.05384 -1.70498 71.4087 15.7047 58.2141 14.7336 -40.8608 8.81659 22.8639 -9.42483 -11.457 28.184 10.7294 19.1592 1.00744e-14 2.18663e-15 -10 7.16026e-15 3.97569e-15 -10 6.36111e-15 -1.59028e-15 -3.18055e-15 19.9818 0.871897 2.3964 24 9.74045e-15 1.27222e-14 20 1.03368e-14 3.49861e-14 6.36111e-15 -1.59028e-15 -3.18055e-15 20 -4.77083e-15 1.59028e-14 24 1.85118e-15 2.22639e-14 20 3.18055e-15 2.54444e-14 6.36111e-15 -1.59028e-15 -3.18055e-15 19.9748 -1.02565 -2.81938 24 3.08116e-15 2.22639e-14 20 6.36111e-15 2.22639e-14 6.36111e-15 -1.59028e-15 -3.18055e-15 19.7815 -3.00948 -8.30515 24 3.37934e-15 1.90833e-14 20 7.15625e-15 1.59028e-14 0.276726 -9.91433 -26.3644 -40.2248 39.6812 -66.5925 7.94206 -52.8883 2.41687 -5.31469 5.5692 3.06411 -28.184 10.7294 -19.1592 2.6688e-15 3.18055e-15 10 9.16309e-15 2.98177e-15 10 1.59028e-15 -7.95139e-16 1.19271e-15 -19.9818 0.871897 -2.3964 -24 -1.19271e-15 9.54166e-15 -20 7.95139e-16 1.43125e-14 1.59028e-15 -7.95139e-16 1.19271e-15 -20 0 5.1684e-15 -24 -3.57812e-15 1.19271e-14 -20 1.59028e-15 1.03368e-14 1.59028e-15 -7.95139e-16 1.19271e-15 -19.9748 -1.02565 2.81938 -24 -1.19271e-15 7.15625e-15 -20 -2.5842e-15 7.15625e-15 1.59028e-15 -7.95139e-16 1.19271e-15 -19.7815 -3.00948 8.30515 -24 -1.19271e-15 1.03368e-14 -20 3.97569e-16 1.19271e-14 
337.625 88.8411 269.153 28.308 24.3335 -45.824 -27.7293 -57.0269 -22.0792 3.35392 30.2869 -22.1039 7.75772 -2.97849 18.0309 4.19369 -63.7459 -19.8798 -6.18378 33.8552 5.21271 -11.6914 -9.58687 6.52672 8.32408 7.04722 -3.07804 2.04295 1.8844 -0.528531 3.38122 3.15027 -0.777126 -0.452053 -0.704436 0.0258528 -0.453176 -0.701269 0.0303902 -8.21121 -12.5135 0.594255 -3.65825 -6.92033 -2.59986 71.0941 16.3898 58.4772 15.0852 -41.163 9.46426 22.8518 -9.43973 -11.4125 28.184 10.7294 19.1592 -1.40204e-15 -7.95139e-15 -10 -2.03542e-15 -2.38542e-15 -10 3.18055e-15 -1.59028e-15 -1.59028e-15 19.9818 0.871897 2.3964 24 3.67752e-15 6.36111e-15 20 -5.56597e-15 -2.22639e-14 3.18055e-15 -1.59028e-15 -1.59028e-15 20 1.59028e-15 3.18055e-15 24 -3.91979e-15 1.27222e-14 20 -6.36111e-15 -0 3.18055e-15 -1.59028e-15 -1.59028e-15 19.9748 -1.02565 -2.81938 24 1.19271e-15 3.18055e-15 20 2.38542e-15 -6.36111e-15 3.18055e-15 -1.59028e-15 -1.59028e-15 19.7815 -3.00948 -8.30515 24 1.78906e-15 6.36111e-15 20 -7.95139e-15 -9.54166e-15 0.265278 -9.95734 -26.4505 -39.9155 39.7864 -66.8818 8.27921 -52.3979 2.74486 -5.25462 5.33459 3.10404 -28.184 10.7294 -19.1592 -7.58087e-15 6.36111e-15 10 -1.15669e-15 6.55989e-15 10 1.59028e-15 -7.95139e-16 2.08724e-15 -19.9818 0.871897 -2.3964 -24 -3.18055e-15 5.56597e-15 -20 -2.98177e-15 7.95139e-15 1.59028e-15 -7.95139e-16 2.08724e-15 -20 4.77083e-15 2.38542e-15 -24 -7.95139e-16 5.96354e-15 -20 -2.38542e-15 7.15625e-15 1.59028e-15 -7.95139e-16 2.08724e-15 -19.9748 -1.02565 2.81938 -24 -3.97569e-16 4.77083e-15 -20 -1.78906e-15 7.95139e-15 1.59028e-15 -7.95139e-16 2.08724e-15 -19.7815 -3.00948 8.30515 -24 3.97569e-16 3.18055e-15 -20 -1.49089e-15 1.07344e-14 
